<svg width="17" height="16" viewBox="0 0 17 16" fill="none" xmlns="http://www.w3.org/2000/svg">
<path d="M9.15424 12.6509C9.24164 12.738 9.31098 12.8415 9.3583 12.9554C9.40562 13.0694 9.42998 13.1916 9.42998 13.3149C9.42998 13.4383 9.40562 13.5605 9.3583 13.6745C9.31098 13.7884 9.24164 13.8919 9.15424 13.979L8.69017 14.4431C7.81081 15.3224 6.61815 15.8164 5.37455 15.8164C4.13095 15.8164 2.93828 15.3224 2.05892 14.4431C1.17957 13.5637 0.685547 12.371 0.685547 11.1274C0.685547 9.88384 1.17957 8.69117 2.05892 7.81181L3.9433 5.92822C4.78821 5.08122 5.925 4.58933 7.12082 4.55331C8.31664 4.51729 9.48097 4.93986 10.3753 5.73447C10.4677 5.81655 10.5429 5.91601 10.5968 6.02717C10.6507 6.13833 10.6822 6.25902 10.6895 6.38235C10.6967 6.50568 10.6796 6.62923 10.6391 6.74595C10.5986 6.86266 10.5355 6.97026 10.4535 7.06259C10.3714 7.15493 10.2719 7.2302 10.1608 7.28409C10.0496 7.33799 9.9289 7.36947 9.80557 7.37672C9.68224 7.38398 9.5587 7.36687 9.44198 7.32638C9.32526 7.28588 9.21767 7.2228 9.12533 7.14072C8.58902 6.66441 7.89098 6.41102 7.17401 6.43237C6.45704 6.45371 5.77532 6.74819 5.2683 7.25556L3.38549 9.13681C2.85795 9.66435 2.56159 10.3798 2.56159 11.1259C2.56159 11.8719 2.85795 12.5874 3.38549 13.1149C3.91302 13.6425 4.62851 13.9388 5.37455 13.9388C6.12059 13.9388 6.83608 13.6425 7.36361 13.1149L7.82767 12.6509C7.91474 12.5637 8.01814 12.4946 8.13195 12.4474C8.24576 12.4002 8.36775 12.3759 8.49096 12.3759C8.61416 12.3759 8.73615 12.4002 8.84996 12.4474C8.96377 12.4946 9.06717 12.5637 9.15424 12.6509ZM14.9417 1.55713C14.0617 0.67912 12.8693 0.186035 11.6261 0.186035C10.383 0.186035 9.19056 0.67912 8.31049 1.55713L7.84642 2.02119C7.6703 2.19731 7.57136 2.43618 7.57136 2.68525C7.57136 2.93432 7.6703 3.17319 7.84642 3.34931C8.02254 3.52543 8.26141 3.62438 8.51049 3.62438C8.75956 3.62438 8.99843 3.52543 9.17455 3.34931L9.63861 2.88525C10.1661 2.35772 10.8816 2.06135 11.6277 2.06135C12.3737 2.06135 13.0892 2.35772 13.6167 2.88525C14.1443 3.41278 14.4406 4.12827 14.4406 4.87431C14.4406 5.62036 14.1443 6.33584 13.6167 6.86338L11.7331 8.74775C11.2257 9.25491 10.5436 9.54896 9.82642 9.56973C9.10927 9.5905 8.4113 9.33641 7.87533 8.85947C7.78299 8.77739 7.6754 8.71431 7.55868 8.67381C7.44196 8.63332 7.31841 8.61621 7.19509 8.62347C7.07176 8.63072 6.95107 8.6622 6.8399 8.7161C6.72874 8.76999 6.62928 8.84526 6.5472 8.9376C6.46513 9.02993 6.40204 9.13753 6.36155 9.25424C6.32106 9.37096 6.30395 9.49451 6.3112 9.61784C6.31846 9.74117 6.34993 9.86186 6.40383 9.97302C6.45773 10.0842 6.53299 10.1836 6.62533 10.2657C7.51906 11.0601 8.68262 11.483 9.87788 11.4477C11.0731 11.4124 12.2097 10.9217 13.055 10.0759L14.9394 8.19228C15.8184 7.31242 16.3124 6.1197 16.3128 4.87597C16.3133 3.63224 15.8201 2.43917 14.9417 1.55869V1.55713Z" fill="#737373"/>
</svg>
